<svg xmlns="http://www.w3.org/2000/svg" viewBox="0 0 346.83 76.92"><defs><style>.cls-1,.cls-3{fill:#727476;}.cls-1,.cls-2{fill-rule:evenodd;}.cls-2,.cls-4{fill:#143b66;}</style></defs><g id="Layer_2" data-name="Layer 2"><g id="Layer_1-2" data-name="Layer 1"><path class="cls-1" d="M82.19,74.46a13.08,13.08,0,0,1-2.63-1.62,29.9,29.9,0,0,1-2.43-2.07q-1.12-1.06-3.75-4c-1.76-1.92-8.83-13-14.64-21.31a35.68,35.68,0,0,0-3.69-4.3,13.94,13.94,0,0,0-3.6-2.78,15.45,15.45,0,0,0,12.21-5.93,21.09,21.09,0,0,0,5-14.07A17.68,17.68,0,0,0,63.4,5.15Q58.14,0,48.92,0H20.05V3.17H40.91c2.43,0,4.46,0,6.08.1a11.82,11.82,0,0,1,9,4.46q3.34,4.15,3.54,10.94V21a13.36,13.36,0,0,1-.6,3.79Q55.69,35,43.14,35.28c-.93,0-8.36-.13-8.81-.19,0,0,6.13.89,9.92,4.64a29.35,29.35,0,0,1,2.13,2.48q1,1.26,7.19,10.18c4.12,5.94,9.92,15.41,10.84,16.45a36.61,36.61,0,0,0,3.24,3.24,20.31,20.31,0,0,0,5.62,3.24,20.63,20.63,0,0,0,8.1,1.57h7.1v-1a14.2,14.2,0,0,1-6.28-1.42"/><path class="cls-2" d="M26.79,76.89H0l.11-1.1H1.43a6.76,6.76,0,0,0,4.88-2A6.9,6.9,0,0,0,8.46,69v-61A6.41,6.41,0,0,0,6.37,3.1a6.93,6.93,0,0,0-4.94-2H.11L0,0H21.85Q33.16,0,39.42,5a16.22,16.22,0,0,1,6.26,13.34A16.62,16.62,0,0,1,33.6,35.05a21.84,21.84,0,0,1,13.73,7.14q5,5.84,5.05,14.66a17.87,17.87,0,0,1-6.76,14.44q-6.75,5.59-18.83,5.6m-11.2-4h11c5.56,0,9.89-1.52,13-4.56s4.61-7.34,4.61-12.9a20.2,20.2,0,0,0-1.59-8.29,16,16,0,0,0-4-5.66q-6.36-5.26-19.1-5.27h-.11v-1h1a22.66,22.66,0,0,0,2.69-.22,33.35,33.35,0,0,0,4-.76A12.08,12.08,0,0,0,31,32.53a20.94,20.94,0,0,0,3.3-2.85q3.18-3.63,3.18-10.82T33.33,7.6q-4.12-4-11.92-4.06H15.59Z"/><rect class="cls-3" x="106.7" width="0.92" height="76.92"/><path class="cls-4" d="M127.76,36.46c1.12,0,2.73,0,4.84-.13s3.5-.13,4.18-.13h.89c2.87,0,5,.58,6.42,1.76a5.73,5.73,0,0,1,2.11,4.62c0,2.73-1.78,4.61-5.34,5.67v.1a7.89,7.89,0,0,1,4.89,2.42,6.68,6.68,0,0,1,1.8,4.69,6.94,6.94,0,0,1-2.49,5.69q-2.49,2.06-7.29,2.05c-.88,0-2.3-.08-4.27-.22s-3.53-.21-4.69-.21c-.13,0-.34,0-.62,0h-.63a1.74,1.74,0,0,1,0-1.15l2.73-.36c.09-.84.13-2.12.13-3.86V38l-2.66-.33A2.77,2.77,0,0,1,127.76,36.46Zm9,1.12a13.69,13.69,0,0,0-2.73.23c-.09.83-.13,2.21-.13,4.12v5.82h2.57A6.57,6.57,0,0,0,141,46.5a4.73,4.73,0,0,0,1.4-3.72,4.86,4.86,0,0,0-1.53-3.85A5.89,5.89,0,0,0,136.81,37.58Zm-.23,11.82H134V61.32a24.5,24.5,0,0,0,2.67.36q4,0,5.49-1.5a6.34,6.34,0,0,0,1.52-4.69,5.74,5.74,0,0,0-1.86-4.33A7.27,7.27,0,0,0,136.58,49.4Z"/><path class="cls-4" d="M155.69,41.89v19.2l2.67.49a3.62,3.62,0,0,1,0,1.32c-1.39-.07-2.8-.1-4.25-.1-1,0-2.44,0-4.28.07a2.18,2.18,0,0,1,0-1.29l2.6-.36c.09-1.21.13-2.6.13-4.19V38.14l-2.7-.33a2.9,2.9,0,0,1,0-1.25c1.52-.11,3.4-.33,5.66-.66a1.15,1.15,0,0,1,.33.66A46.09,46.09,0,0,0,155.69,41.89Z"/><path class="cls-4" d="M170.51,52.82V51.15a9.47,9.47,0,0,0-.65-4.07,2.18,2.18,0,0,0-2.12-1.27,3.25,3.25,0,0,0-2.44,1,6.08,6.08,0,0,0-1.25,3.31,7.55,7.55,0,0,1-1.54.23c-.86,0-1.37-.3-1.52-.92a4.11,4.11,0,0,1,1.94-3.56,8.51,8.51,0,0,1,4.84-1.31c2.13,0,3.64.43,4.53,1.3s1.34,2.42,1.34,4.66v9.28a9.68,9.68,0,0,0,.09,1.42l2.6.33a2.89,2.89,0,0,1,0,1.25c-1.55.06-3.21.22-5,.46a1.29,1.29,0,0,1-.33-.66l-.16-2.27a8,8,0,0,1-6.09,3.13,4.06,4.06,0,0,1-4.41-4.38,5,5,0,0,1,2.74-4.58A15.89,15.89,0,0,1,170.51,52.82Zm-7,5.56a3.69,3.69,0,0,0,.63,2.43,2.51,2.51,0,0,0,2,.71,5,5,0,0,0,2.19-.61,7.51,7.51,0,0,0,2.23-1.77V54a12.45,12.45,0,0,0-5.21,1.2A3.42,3.42,0,0,0,163.49,58.38Z"/><path class="cls-4" d="M183.08,41.89v19.2l2.67.49a3.23,3.23,0,0,1,0,1.32c-1.38-.07-2.79-.1-4.21-.1-1,0-2.44,0-4.28.07a2,2,0,0,1,0-1.29l2.6-.36C180,60,180,58.62,180,57V38.17l-2.7-.33a2.89,2.89,0,0,1,0-1.25q2.21-.17,5.63-.69a1.15,1.15,0,0,1,.33.66A45,45,0,0,0,183.08,41.89Zm.37,11.4,6.88-6.66-2.17-.26a3,3,0,0,1,0-1.28c1.2.08,2.33.13,3.39.13.85,0,2,0,3.42-.1a2.05,2.05,0,0,1,0,1.25l-2.6.46-5.83,5.47,7.18,8.59,2.57.66a3.23,3.23,0,0,1,0,1.32c-1.38-.07-2.77-.1-4.15-.1-.94,0-2.34,0-4.18.06a2.15,2.15,0,0,1,0-1.28l2.17-.3Z"/><path class="cls-4" d="M210.18,53.48H199.84q-.28,8.4,5,8.4a7.24,7.24,0,0,0,4.64-2,1.87,1.87,0,0,1,.76,1,7.39,7.39,0,0,1-5.76,2.54q-8,0-8-9.45a9.7,9.7,0,0,1,2.37-7,7.43,7.43,0,0,1,5.53-2.48,5.43,5.43,0,0,1,5,2.4,11.58,11.58,0,0,1,1.51,6.26A1.3,1.3,0,0,1,210.18,53.48Zm-5.86-7.64a3.48,3.48,0,0,0-2.91,1.78,9.72,9.72,0,0,0-1.47,4.55H204a14.28,14.28,0,0,0,3.49-.3,9.85,9.85,0,0,0-.83-4.36A2.58,2.58,0,0,0,204.32,45.84Z"/><path class="cls-4" d="M245.68,58h.06q.33-1.35,1.58-5.46L251.9,38l-2.67-.33V36.46c1.21.09,2.37.13,3.49.13,1,0,2.15,0,3.56-.1v1.19l-2.17.39A16.4,16.4,0,0,0,252.79,41l-7.47,22.76h-.86l-6.32-18.44-6.92,18.47-.89,0L221.81,38l-2.67-.33a2.77,2.77,0,0,1,0-1.22c1.21.09,2.78.13,4.71.13,1.78,0,3.37,0,4.77-.1a1.86,1.86,0,0,1,0,1.19l-2.73.39,4.35,14.59c.54,2,1,3.83,1.41,5.56h.07c.44-1.44,1.07-3.3,1.91-5.56l3.62-10L235.67,38,233,37.68a2.77,2.77,0,0,1,0-1.22c1.21.09,2.73.13,4.58.13,1.67,0,3.21,0,4.64-.1a1.86,1.86,0,0,1,0,1.19l-2.73.39,4.67,14.33C244.89,54.77,245.39,56.62,245.68,58Z"/><path class="cls-4" d="M254.57,59.11a2.13,2.13,0,0,1,1.5.58,1.89,1.89,0,0,1,.6,1.43,2.07,2.07,0,0,1-2.07,2.08,2.08,2.08,0,0,1-2.07-2.08,1.89,1.89,0,0,1,.59-1.43A2,2,0,0,1,254.57,59.11Z"/><path class="cls-4" d="M269.45,36.46c.9,0,2.33,0,4.3-.13s3.74-.13,5.35-.13q5,0,7.14,2a7.2,7.2,0,0,1,2.14,5.55,5.73,5.73,0,0,1-1.48,3.85A9,9,0,0,1,283,50.16l2.65,4.51c.82,1.4,1.42,2.45,1.79,3.13s.71,1.29,1,1.82.53.91.68,1.11a4.4,4.4,0,0,0,.41.49l2.37.33a2.77,2.77,0,0,1,0,1.22h-5.6l-5-9a15.69,15.69,0,0,0-1.88-2.9H279a29.92,29.92,0,0,1-3.39-.2V61.29l3,.33a3.25,3.25,0,0,1,0,1.25c-1.39-.07-2.95-.1-4.68-.1-1.3,0-2.86,0-4.71.06a1.93,1.93,0,0,1,0-1.21l2.74-.4c.08-.83.13-2.11.13-3.85V38l-2.67-.33A2.77,2.77,0,0,1,269.45,36.46Zm6.19,5.48v7.39a24.1,24.1,0,0,0,3,.14,7,7,0,0,0,2.88-.55,4.08,4.08,0,0,0,1.8-1.45,7,7,0,0,0,.86-1.87,7.8,7.8,0,0,0,.26-2A6.41,6.41,0,0,0,283,39.16q-1.41-1.57-4.71-1.58a13.33,13.33,0,0,0-2.43.23A40.24,40.24,0,0,0,275.64,41.94Z"/><path class="cls-4" d="M308.43,45.19v12.9c0,1.47,0,2.51.1,3.1l2.61.33a4.34,4.34,0,0,1,0,1.25,50.15,50.15,0,0,0-5,.46,1.35,1.35,0,0,1-.33-.63l-.16-2.93a12.93,12.93,0,0,1-2.85,2.77,6,6,0,0,1-3.44,1,5.49,5.49,0,0,1-3.38-1,4.09,4.09,0,0,1-1.36-3.49V51.61c0-2.51,0-4.11-.1-4.81l-2.6-.33a2.9,2.9,0,0,1,0-1.25q2.26-.16,5.66-.69a1.15,1.15,0,0,1,.33.66q-.16.86-.17,12.08a7.06,7.06,0,0,0,.55,3.28,2.11,2.11,0,0,0,2,1c1.85,0,3.51-1.1,5-3.3V51.57c0-2.48,0-4.07-.1-4.77l-2.6-.33a2.9,2.9,0,0,1,0-1.25c1.31-.09,3.15-.32,5.5-.69A1.19,1.19,0,0,1,308.43,45.19Z"/><path class="cls-4" d="M319,62a3.68,3.68,0,0,0,2.64-.83,2.54,2.54,0,0,0,.85-1.9,3.32,3.32,0,0,0-.19-1.16,3.37,3.37,0,0,0-.65-1,5.88,5.88,0,0,0-1.16-1c-.49-.32-1.09-.66-1.82-1-.9-.46-1.67-.9-2.32-1.31a8,8,0,0,1-1.59-1.32,4.93,4.93,0,0,1-.94-1.48,4.78,4.78,0,0,1-.32-1.78,4.7,4.7,0,0,1,.43-2.06,4.12,4.12,0,0,1,1.2-1.45,5.32,5.32,0,0,1,1.83-.85,8.94,8.94,0,0,1,2.34-.28,10.8,10.8,0,0,1,5,1.25V50h-1.55L322,46.44a7,7,0,0,0-3.06-.69c-1.8,0-2.7.73-2.7,2.2a3.17,3.17,0,0,0,.89,2.17,9.76,9.76,0,0,0,2.86,2c.9.46,1.69.9,2.38,1.32a8.46,8.46,0,0,1,1.69,1.31,5,5,0,0,1,1,1.5,4.63,4.63,0,0,1,.35,1.83,4.71,4.71,0,0,1-.5,2.14,5.13,5.13,0,0,1-1.38,1.7A7,7,0,0,1,321.44,63a9,9,0,0,1-2.77.41,12.41,12.41,0,0,1-5.49-1.25V58h1.54l.73,3.26A8.45,8.45,0,0,0,319,62Z"/><path class="cls-4" d="M330.2,41.4c0-1.45,0-2.52-.1-3.23l-2.6-.33a2.89,2.89,0,0,1,0-1.25q2.21-.17,5.63-.69a1.15,1.15,0,0,1,.33.66,45,45,0,0,0-.17,5.33v6.23q2.44-3.36,5.86-3.36a5.87,5.87,0,0,1,3.49,1,4,4,0,0,1,1.45,3.49V61.09l2.67.49a3.23,3.23,0,0,1,0,1.32c-1.38-.07-2.79-.1-4.21-.1-1,0-2.44,0-4.28.07a2,2,0,0,1,0-1.29l2.6-.36C341,60,341,58.62,341,57V50.91a7,7,0,0,0-.58-3.32,2.19,2.19,0,0,0-2.09-1,4.76,4.76,0,0,0-2.62.92,8.43,8.43,0,0,0-2.42,2.67V61.09l2.67.49a3.23,3.23,0,0,1,0,1.32c-1.38-.07-2.79-.1-4.21-.1-1,0-2.44,0-4.28.07a2,2,0,0,1,0-1.29l2.6-.36c.08-1.21.13-2.6.13-4.18Z"/><path class="cls-3" d="M128.8,26.31V15.92a1.51,1.51,0,0,0-.71-1.55H131a1.52,1.52,0,0,0-.7,1.55V26.74h4.2c1.6,0,2.1-.12,2.89-.75l.12-.08-.6,1.94h-8.86C128.62,27.53,128.8,27.14,128.8,26.31Z"/><path class="cls-3" d="M145.43,26.11a3.89,3.89,0,0,1-3.62,2c-2.17,0-3.5-1.09-3.5-2.89,0-2.3,1.78-3.52,5.22-3.52.52,0,.86,0,1.67.09v-.43c0-.85,0-.93-.18-1.31-.3-.67-1.21-1-2.59-1a6.76,6.76,0,0,0-3.19.7l.4-1.53a16.31,16.31,0,0,1,2.73-.25,7.41,7.41,0,0,1,3,.51,1.92,1.92,0,0,1,.84.73c.35.52.41.83.41,2.46v3.5a8.72,8.72,0,0,0,.14,1.7,3.17,3.17,0,0,0,.34,1h-1.57A8.19,8.19,0,0,1,145.43,26.11Zm-2.05-3.52c-2.28,0-3.55.85-3.55,2.39a2.15,2.15,0,0,0,2.32,2.14,3,3,0,0,0,2.08-.83,2.78,2.78,0,0,0,.69-1.09,6.54,6.54,0,0,0,.28-2.46A11,11,0,0,0,143.38,22.59Z"/><path class="cls-3" d="M148.29,19.89a4,4,0,0,0-1.07-1.68h2.12l2.47,6.61,1.9-5a4.42,4.42,0,0,0-1.1-1.61h2.77a1,1,0,0,0-.26.62,1.69,1.69,0,0,0,.18.69l1.9,5.28,1.92-5.1a2,2,0,0,0,.19-.83.75.75,0,0,0-.31-.66h2.37c-.2.22-.26.3-.37.44a7.51,7.51,0,0,0-.68,1.34L157,28.11l-2.65-6.67-2.73,6.67Z"/><path class="cls-3" d="M166.1,21.22A7,7,0,1,1,180,21.08a6.87,6.87,0,0,1-7,7,6.7,6.7,0,0,1-6.94-6.53Zm7,5.8c3.09,0,5.27-2.44,5.27-6s-2.22-5.8-5.39-5.8-5.2,2.36-5.2,6C167.76,24.64,169.94,27,173.08,27Z"/><path class="cls-3" d="M181.69,27.85c.55-.32.71-.71.71-1.54v-7h-.56a3.89,3.89,0,0,0-1,.1l.58-1.19h.93V16.65c0-2.45,1.19-3.52,3.9-3.52.23,0,.37,0,.69,0l.22,1.26a5,5,0,0,0-1.15-.12,2.15,2.15,0,0,0-1.51.44c-.49.38-.65,1-.65,2.39v1.09h1.62a4,4,0,0,0,1-.1l-.61,1.19h-2v7c0,.83.16,1.22.71,1.54Z"/><path class="cls-3" d="M187.36,27.85c.54-.32.71-.71.71-1.54v-7h-.57a3.94,3.94,0,0,0-.95.1l.59-1.19h.93V16.65c0-2.45,1.19-3.52,3.9-3.52.22,0,.36,0,.68,0l.23,1.26a5.18,5.18,0,0,0-1.16-.12,2.16,2.16,0,0,0-1.51.44c-.49.38-.65,1-.65,2.39v1.09h1.62a4,4,0,0,0,1-.1l-.61,1.19h-2v7c0,.83.16,1.22.71,1.54Z"/><path class="cls-3" d="M193.4,26.31v-6l0-.5c0-.79-.08-1-.53-1.38l2-.59v8.43a1.51,1.51,0,0,0,.71,1.54h-2.89C193.24,27.53,193.4,27.14,193.4,26.31Zm-.2-11.64h1.67v1.82H193.2Z"/><path class="cls-3" d="M204.54,19.85a4.63,4.63,0,0,0-2.65-.79c-2.24,0-3.7,1.55-3.7,4a3.61,3.61,0,0,0,3.8,4A4.91,4.91,0,0,0,205,26l-.35,1.84a9.44,9.44,0,0,1-2.53.32,8.34,8.34,0,0,1-2-.22,4.77,4.77,0,0,1-3.53-4.81,5.41,5.41,0,0,1,1.43-3.7,5.28,5.28,0,0,1,4.08-1.44,13.27,13.27,0,0,1,2.25.21Z"/><path class="cls-3" d="M211.17,28.13c-3.38,0-5.52-1.94-5.52-5a4.93,4.93,0,0,1,4.83-5.22,4.35,4.35,0,0,1,3.88,2.35,5.09,5.09,0,0,1,.59,2.57h-7.66v.38a3.57,3.57,0,0,0,3.9,3.76,5.31,5.31,0,0,0,3.29-1.13l-.38,1.9A14,14,0,0,1,211.17,28.13Zm2.06-6.34a2.77,2.77,0,0,0-2.81-2.71,3,3,0,0,0-3,2.71Z"/><path class="cls-3" d="M220.35,23.14a5,5,0,0,1,5.05-5.2,4.84,4.84,0,0,1,5,5,4.93,4.93,0,0,1-5.08,5.19A4.75,4.75,0,0,1,220.35,23.14Zm5.11,3.94c2,0,3.38-1.66,3.38-4.1s-1.37-4-3.44-4S222,20.63,222,23.1c0,2.32,1.29,3.86,3.33,4Z"/><path class="cls-3" d="M231.57,27.85c.55-.32.71-.71.71-1.54v-7h-.57a4,4,0,0,0-1,.1l.59-1.19h.93V16.65c0-2.45,1.19-3.52,3.9-3.52.22,0,.37,0,.69,0l.22,1.26a5.1,5.1,0,0,0-1.15-.12,2.19,2.19,0,0,0-1.52.44c-.48.38-.64,1-.64,2.39v1.09h1.61a4,4,0,0,0,1-.1l-.6,1.19h-2v7c0,.83.16,1.22.7,1.54Z"/></g></g></svg>