<svg xmlns="http://www.w3.org/2000/svg" width="18.156" height="32.274" viewBox="0 0 18.156 32.274">
  <path id="dollar-sign-regular" d="M13.344,15.261,6.013,13.168a2.68,2.68,0,0,1-1.96-2.112A2.587,2.587,0,0,1,6.605,8.068h4.652a4.872,4.872,0,0,1,2.8.889,1,1,0,0,0,1.292-.107l1.443-1.443A1.02,1.02,0,0,0,16.7,5.887a8.841,8.841,0,0,0-5.44-1.853h-.176V1.009A1.012,1.012,0,0,0,10.072,0H8.055A1.012,1.012,0,0,0,7.046,1.009V4.034H6.889A6.831,6.831,0,0,0,.182,9.052a6.635,6.635,0,0,0,4.6,7.961l7.331,2.093a2.68,2.68,0,0,1,1.96,2.112,2.587,2.587,0,0,1-2.553,2.988H6.87a4.872,4.872,0,0,1-2.8-.889,1,1,0,0,0-1.292.107L1.336,24.867a1.02,1.02,0,0,0,.095,1.519A8.815,8.815,0,0,0,6.87,28.24h.176v3.026a1.012,1.012,0,0,0,1.009,1.009h2.017a1.012,1.012,0,0,0,1.009-1.009V28.24h.158a6.831,6.831,0,0,0,6.707-5.018,6.635,6.635,0,0,0-4.6-7.961Z" transform="translate(0.014)" fill="#006c9f"/>
</svg>
