<?xml version="1.0" encoding="UTF-8" standalone="no"?>
<svg
   xmlns:dc="http://purl.org/dc/elements/1.1/"
   xmlns:cc="http://creativecommons.org/ns#"
   xmlns:rdf="http://www.w3.org/1999/02/22-rdf-syntax-ns#"
   xmlns:svg="http://www.w3.org/2000/svg"
   xmlns="http://www.w3.org/2000/svg"
   aria-hidden="true"
   focusable="false"
   data-prefix="fal"
   data-icon="hard-hat"
   class="svg-inline--fa fa-hard-hat fa-w-16"
   role="img"
   viewBox="0 0 36 33"
   version="1.1"
   id="svg4"
   width="36"
   height="33">
  <metadata
     id="metadata10">
    <rdf:RDF>
      <cc:Work
         rdf:about="">
        <dc:format>image/svg+xml</dc:format>
        <dc:type
           rdf:resource="http://purl.org/dc/dcmitype/StillImage" />
        <dc:title></dc:title>
      </cc:Work>
    </rdf:RDF>
  </metadata>
  <defs
     id="defs8" />
  <path
     fill="currentColor"
     d="M 33.75,23.25 V 21 C 33.75,13.874531 28.992656,7.914141 22.5,5.970703 V 5.25 A 2.25,2.25 0 0 0 20.25,3 h -4.5 A 2.25,2.25 0 0 0 13.5,5.25 V 5.970703 C 7.0073437,7.914141 2.25,13.874531 2.25,21 v 2.25 A 2.25,2.25 0 0 0 0,25.5 v 2.25 A 2.25,2.25 0 0 0 2.25,30 h 31.5 A 2.25,2.25 0 0 0 36,27.75 V 25.5 A 2.25,2.25 0 0 0 33.75,23.25 Z M 4.5,21 c 0,-5.537813 3.391875,-10.223438 8.175938,-12.29625 l 1.828125,7.317422 A 0.6328125,0.6328125 0 0 0 15.75,15.867187 V 5.25 h 4.5 v 10.617187 a 0.6328125,0.6328125 0 0 0 1.244531,0.153282 L 23.322656,8.703047 C 28.108125,10.776562 31.5,15.462187 31.5,21 v 2.25 h -27 z m 29.25,6.75 H 2.25 V 25.5 h 31.5 z"
     id="path2"
     style="stroke-width:0.0703125;fill:#006c9f;fill-opacity:1" />
</svg>
