<?xml version="1.0" encoding="UTF-8" standalone="no"?>
<svg
   xmlns:dc="http://purl.org/dc/elements/1.1/"
   xmlns:cc="http://creativecommons.org/ns#"
   xmlns:rdf="http://www.w3.org/1999/02/22-rdf-syntax-ns#"
   xmlns:svg="http://www.w3.org/2000/svg"
   xmlns="http://www.w3.org/2000/svg"
   aria-hidden="true"
   focusable="false"
   data-prefix="fal"
   data-icon="map-marker-alt"
   class="svg-inline--fa fa-map-marker-alt fa-w-12"
   role="img"
   viewBox="0 0 27.000013 36"
   version="1.1"
   id="svg4"
   width="27.000013"
   height="36">
  <metadata
     id="metadata10">
    <rdf:RDF>
      <cc:Work
         rdf:about="">
        <dc:format>image/svg+xml</dc:format>
        <dc:type
           rdf:resource="http://purl.org/dc/dcmitype/StillImage" />
        <dc:title></dc:title>
      </cc:Work>
    </rdf:RDF>
  </metadata>
  <defs
     id="defs8" />
  <path
     fill="currentColor"
     d="m 13.500007,6.7500033 c -3.7219944,0 -6.7500037,3.0280093 -6.7500037,6.7500037 0,3.721994 3.0280093,6.750003 6.7500037,6.750003 3.721994,0 6.750003,-3.028009 6.750003,-6.750003 0,-3.7219944 -3.028009,-6.7500037 -6.750003,-6.7500037 z m 0,11.2500057 c -2.48133,0 -4.5000026,-2.018673 -4.5000026,-4.500002 0,-2.48133 2.0186726,-4.5000026 4.5000026,-4.5000026 2.481329,0 4.500002,2.0186726 4.500002,4.5000026 0,2.481329 -2.018673,4.500002 -4.500002,4.500002 z M 13.500007,0 C 6.0441358,0 0,6.0441358 0,13.500007 c 0,5.443104 1.8963291,6.96312 12.1126,21.773682 0.670359,0.968344 2.104384,0.968485 2.774884,0 C 25.103684,20.463127 27.000013,18.943111 27.000013,13.500007 27.000013,6.0441358 20.955877,0 13.500007,0 Z m 0,33.32329 C 3.7058221,19.159322 2.2500011,18.034743 2.2500011,13.500007 c 0,-3.005018 1.1702115,-5.8301048 3.2950563,-7.9549496 2.1248448,-2.1248448 4.9499316,-3.2950563 7.9549496,-3.2950563 3.005017,0 5.830104,1.1702115 7.954949,3.2950563 2.124845,2.1248448 3.295056,4.9499316 3.295056,7.9549496 0,4.534455 -1.454907,5.658049 -11.250005,19.823283 z"
     id="path2"
     style="fill:#006c9f;stroke-width:0.0703125;fill-opacity:1" />
</svg>
