<?xml version="1.0" encoding="utf-8"?>
<!-- Generator: Adobe Illustrator 25.2.3, SVG Export Plug-In . SVG Version: 6.00 Build 0)  -->
<svg version="1.1" id="Layer_1" focusable="false" xmlns="http://www.w3.org/2000/svg" xmlns:xlink="http://www.w3.org/1999/xlink"
	 x="0px" y="0px" viewBox="0 0 88.9 44.9" style="enable-background:new 0 0 88.9 44.9;" xml:space="preserve">
<style type="text/css">
	.st0{fill:#143B66;}
	.st1{fill-rule:evenodd;clip-rule:evenodd;fill:#727476;}
	.st2{fill-rule:evenodd;clip-rule:evenodd;fill:#FFFFFF;}
	.st3{fill:#727476;}
	.st4{fill:#FFFFFF;}
</style>
<rect class="st0" width="88.9" height="44.9"/>
<text transform="matrix(1 0 0 1 950 540)" style="font-family:'ArialMT'; font-size:12px;">map-marker-plus-regular.svg</text>
<g id="Layer_2_1_">
	<g id="Layer_1-2">
		<path class="st1" d="M23.1,30.9c-0.2-0.1-0.4-0.2-0.6-0.4c-0.2-0.2-0.4-0.3-0.6-0.5c-0.2-0.2-0.5-0.5-0.9-0.9
			c-0.4-0.4-2.1-3-3.4-5c-0.3-0.4-0.5-0.7-0.9-1c-0.2-0.3-0.5-0.5-0.8-0.7c1.1,0,2.2-0.5,2.9-1.4c0.8-0.9,1.2-2.1,1.2-3.3
			c0-1.2-0.4-2.3-1.2-3.1c-0.8-0.8-1.9-1.2-3.4-1.2H8.6v0.7h4.9c0.6,0,1,0,1.4,0c0.8,0,1.6,0.4,2.1,1c0.5,0.6,0.8,1.5,0.8,2.6v0.5
			c0,0.3-0.1,0.6-0.1,0.9c-0.5,1.6-1.7,2.4-3.7,2.5c-0.2,0-2,0-2.1,0c0,0,1.4,0.2,2.3,1.1c0.2,0.2,0.3,0.4,0.5,0.6
			c0.2,0.2,0.7,1,1.7,2.4c1,1.4,2.3,3.6,2.5,3.8c0.2,0.3,0.5,0.5,0.8,0.8c0.4,0.3,0.8,0.6,1.3,0.8c0.6,0.2,1.2,0.4,1.9,0.4h1.7v-0.2
			C24.1,31.2,23.6,31.1,23.1,30.9"/>
		<path class="st2" d="M10.2,31.4H3.9l0-0.3h0.3c0.4,0,0.8-0.2,1.1-0.5c0.3-0.3,0.5-0.7,0.5-1.1V15.3c0-0.4-0.2-0.9-0.5-1.1
			c-0.3-0.3-0.7-0.5-1.2-0.5H3.9l0-0.3H9c1.8,0,3.1,0.4,4.1,1.2c1,0.7,1.5,1.9,1.5,3.1c0.1,1.8-1.1,3.4-2.8,3.9
			c1.2,0.1,2.4,0.7,3.2,1.7c0.8,0.9,1.2,2.1,1.2,3.4c0,1.3-0.6,2.6-1.6,3.4C13.5,31,12,31.4,10.2,31.4 M7.5,30.5h2.6
			c1.3,0,2.3-0.4,3-1.1c0.7-0.7,1.1-1.7,1.1-3c0-0.7-0.1-1.3-0.4-1.9c-0.2-0.5-0.5-1-0.9-1.3c-1-0.8-2.5-1.2-4.5-1.2h0v-0.2h0.2
			c0.2,0,0.4,0,0.6-0.1c0.3,0,0.6-0.1,0.9-0.2c0.3-0.1,0.6-0.2,0.9-0.4c0.3-0.2,0.5-0.4,0.8-0.7c0.5-0.6,0.7-1.4,0.7-2.5
			c0-1.1-0.3-2-1-2.6c-0.6-0.6-1.6-0.9-2.8-0.9H7.5L7.5,30.5z"/>
		<rect x="28.8" y="13.5" class="st3" width="0.2" height="18"/>
		<path class="st4" d="M33.8,22c0.3,0,0.6,0,1.1,0c0.5,0,0.8,0,1,0h0.2c0.7,0,1.2,0.1,1.5,0.4c0.3,0.3,0.5,0.7,0.5,1.1
			c0,0.6-0.4,1.1-1.2,1.3v0c0.4,0,0.8,0.2,1.1,0.6c0.3,0.3,0.4,0.7,0.4,1.1c0,0.5-0.2,1-0.6,1.3c-0.4,0.3-1,0.5-1.7,0.5
			c-0.2,0-0.5,0-1-0.1s-0.8,0-1.1,0c0,0-0.1,0-0.1,0h-0.1c0-0.1,0-0.2,0-0.3l0.6-0.1c0-0.2,0-0.5,0-0.9v-4.5l-0.6-0.1
			C33.8,22.2,33.8,22.1,33.8,22z M35.9,22.2c-0.2,0-0.4,0-0.6,0.1c0,0.2,0,0.5,0,1v1.4h0.6c0.4,0,0.8-0.1,1.1-0.3
			c0.2-0.2,0.4-0.5,0.3-0.9c0-0.3-0.1-0.7-0.4-0.9C36.6,22.3,36.2,22.2,35.9,22.2L35.9,22.2z M35.8,25h-0.6v2.8
			c0.2,0,0.4,0.1,0.6,0.1c0.6,0,1.1-0.1,1.3-0.4c0.3-0.3,0.4-0.7,0.4-1.1c0-0.4-0.2-0.8-0.4-1C36.7,25.1,36.3,25,35.8,25L35.8,25z"
			/>
		<path class="st4" d="M40.3,23.3v4.5l0.6,0.1c0,0.1,0,0.2,0,0.3c-0.3,0-0.7,0-1,0c-0.2,0-0.6,0-1,0c0-0.1,0-0.2,0-0.3l0.6-0.1
			c0-0.3,0-0.6,0-1v-4.4l-0.6-0.1c0-0.1,0-0.2,0-0.3c0.4,0,0.8-0.1,1.3-0.2c0,0,0.1,0.1,0.1,0.2C40.3,22.4,40.3,22.8,40.3,23.3z"/>
		<path class="st4" d="M43.8,25.8v-0.4c0-0.3,0-0.6-0.2-1c-0.1-0.2-0.3-0.3-0.5-0.3c-0.2,0-0.4,0.1-0.6,0.2
			c-0.2,0.2-0.3,0.5-0.3,0.8c-0.1,0-0.2,0-0.4,0.1c-0.2,0-0.3-0.1-0.4-0.2c0-0.3,0.2-0.7,0.5-0.8c0.3-0.2,0.7-0.3,1.1-0.3
			c0.5,0,0.9,0.1,1.1,0.3c0.2,0.2,0.3,0.6,0.3,1.1v2.2c0,0.1,0,0.2,0,0.3l0.6,0.1c0,0.1,0,0.2,0,0.3c-0.4,0-0.8,0.1-1.2,0.1
			c0,0-0.1-0.1-0.1-0.2l0-0.5c-0.3,0.4-0.9,0.7-1.4,0.7c-0.5,0-1-0.3-1-0.9c0-0.1,0-0.1,0-0.2c0-0.5,0.2-0.9,0.6-1.1
			C42.6,25.9,43.2,25.8,43.8,25.8z M42.1,27.1c0,0.2,0,0.4,0.1,0.6c0.1,0.1,0.3,0.2,0.5,0.2c0.2,0,0.4-0.1,0.5-0.1
			c0.2-0.1,0.4-0.2,0.5-0.4v-1.2c-0.4,0-0.8,0.1-1.2,0.3C42.3,26.5,42.1,26.8,42.1,27.1L42.1,27.1z"/>
		<path class="st4" d="M46.7,23.3v4.5l0.6,0.1c0,0.1,0,0.2,0,0.3c-0.3,0-0.7,0-1,0c-0.2,0-0.6,0-1,0c0-0.1,0-0.2,0-0.3l0.6-0.1
			c0-0.3,0-0.6,0-1v-4.4l-0.6-0.1c0-0.1,0-0.2,0-0.3c0.3,0,0.8-0.1,1.3-0.2c0,0,0.1,0.1,0.1,0.2C46.7,22.4,46.7,22.8,46.7,23.3z
			 M46.8,25.9l1.6-1.6l-0.5-0.1c0-0.1,0-0.2,0-0.3c0.3,0,0.5,0,0.8,0c0.2,0,0.5,0,0.8,0c0,0.1,0,0.2,0,0.3l-0.6,0.1l-1.4,1.3l1.7,2
			l0.6,0.2c0,0.1,0,0.2,0,0.3c-0.3,0-0.6,0-1,0c-0.2,0-0.5,0-1,0c0-0.1,0-0.2,0-0.3l0.5-0.1L46.8,25.9z"/>
		<path class="st4" d="M53,26h-2.4c0,1.3,0.3,2,1.2,2c0.4,0,0.8-0.2,1.1-0.5c0.1,0.1,0.1,0.1,0.2,0.2c-0.3,0.4-0.8,0.6-1.3,0.6
			c-1.2,0-1.9-0.7-1.9-2.2c0-0.6,0.2-1.2,0.6-1.6c0.3-0.4,0.8-0.6,1.3-0.6c0.5,0,0.9,0.2,1.2,0.6c0.3,0.4,0.4,1,0.4,1.5
			C53.2,25.9,53.1,26,53,26z M51.7,24.2c-0.3,0-0.5,0.2-0.7,0.4c-0.2,0.3-0.3,0.7-0.3,1.1h0.9c0.3,0,0.5,0,0.8-0.1
			c0-0.4-0.1-0.7-0.2-1C52.1,24.3,51.9,24.2,51.7,24.2L51.7,24.2z"/>
		<path class="st4" d="M61.4,27L61.4,27c0.1-0.2,0.2-0.6,0.4-1.3l1.1-3.4l-0.6-0.1V22c0.3,0,0.6,0,0.8,0c0.2,0,0.5,0,0.8,0v0.3
			l-0.5,0.1c-0.1,0.2-0.2,0.4-0.3,0.7l-1.7,5.3h-0.2l-1.5-4.3L58,28.4h-0.2l-2-6l-0.6-0.1c0-0.1,0-0.2,0-0.3c0.3,0,0.7,0,1.1,0
			c0.4,0,0.8,0,1.1,0c0,0.1,0,0.2,0,0.3l-0.6,0.1l1,3.4c0.1,0.5,0.2,0.9,0.3,1.3h0c0.1-0.3,0.3-0.8,0.4-1.3l0.8-2.3L59,22.3
			l-0.6-0.1c0-0.1,0-0.2,0-0.3c0.3,0,0.6,0,1.1,0c0.4,0,0.8,0,1.1,0c0,0.1,0,0.2,0,0.3l-0.6,0.1l1.1,3.4
			C61.2,26.3,61.3,26.7,61.4,27z"/>
		<path class="st4" d="M63.4,27.3c0.1,0,0.3,0,0.4,0.1c0.1,0.1,0.1,0.2,0.1,0.3c0,0.3-0.2,0.5-0.5,0.5c0,0,0,0,0,0
			c-0.3,0-0.5-0.2-0.5-0.5c0-0.1,0-0.2,0.1-0.3C63.2,27.3,63.3,27.3,63.4,27.3z"/>
		<path class="st4" d="M66.9,22c0.2,0,0.5,0,1,0c0.5,0,0.9,0,1.3,0c0.8,0,1.3,0.2,1.7,0.5c0.3,0.3,0.5,0.8,0.5,1.3
			c0,0.3-0.1,0.7-0.3,0.9c-0.2,0.3-0.6,0.5-0.9,0.6l0.6,1.1c0.2,0.3,0.3,0.6,0.4,0.7c0.1,0.2,0.2,0.3,0.2,0.4
			c0.1,0.1,0.1,0.2,0.2,0.3c0,0,0.1,0.1,0.1,0.1l0.6,0.1c0,0.1,0,0.2,0,0.3h-1.3L69.7,26c-0.1-0.2-0.3-0.5-0.4-0.7h-0.1
			c-0.3,0-0.5,0-0.8,0v2.5l0.7,0.1c0,0.1,0,0.2,0,0.3c-0.3,0-0.7,0-1.1,0c-0.3,0-0.7,0-1.1,0c0-0.1,0-0.2,0-0.3l0.6-0.1
			c0-0.2,0-0.5,0-0.9v-4.5l-0.6-0.1C66.9,22.2,66.9,22.1,66.9,22z M68.4,23.3V25c0.2,0,0.5,0,0.7,0c0.2,0,0.5,0,0.7-0.1
			c0.2-0.1,0.3-0.2,0.4-0.3c0.1-0.1,0.2-0.3,0.2-0.4c0-0.2,0.1-0.3,0.1-0.5c0-0.4-0.1-0.7-0.3-1c-0.2-0.2-0.6-0.4-1.1-0.4
			c-0.2,0-0.4,0-0.6,0.1C68.4,22.6,68.4,22.9,68.4,23.3z"/>
		<path class="st4" d="M76,24v3c0,0.3,0,0.6,0,0.7l0.6,0.1c0,0.1,0,0.2,0,0.3c-0.4,0-0.8,0.1-1.2,0.1c0,0-0.1-0.1-0.1-0.1l0-0.7
			c-0.2,0.2-0.4,0.5-0.7,0.6c-0.2,0.2-0.5,0.2-0.8,0.2c-0.3,0-0.6-0.1-0.8-0.2c-0.2-0.2-0.4-0.5-0.3-0.8v-1.7c0-0.6,0-1,0-1.1
			l-0.6-0.1c0-0.1,0-0.2,0-0.3c0.4,0,0.8-0.1,1.3-0.2c0,0,0.1,0.1,0.1,0.2c0,0.1,0,1.1,0,2.8c0,0.3,0,0.5,0.1,0.8
			c0.1,0.2,0.3,0.3,0.5,0.2c0.4,0,0.8-0.3,1.2-0.8v-1.6c0-0.6,0-1,0-1.1l-0.6-0.1c0-0.1,0-0.2,0-0.3c0.3,0,0.7-0.1,1.3-0.2
			C76,23.9,76,24,76,24z"/>
		<path class="st4" d="M78.5,28c0.2,0,0.4-0.1,0.6-0.2c0.1-0.1,0.2-0.3,0.2-0.4c0-0.1,0-0.2,0-0.3c0-0.1-0.1-0.2-0.2-0.2
			c-0.1-0.1-0.2-0.2-0.3-0.2c-0.1-0.1-0.3-0.2-0.4-0.2c-0.2-0.1-0.4-0.2-0.5-0.3c-0.1-0.1-0.3-0.2-0.4-0.3c-0.1-0.1-0.2-0.2-0.2-0.3
			c-0.1-0.1-0.1-0.3-0.1-0.4c0-0.2,0-0.3,0.1-0.5c0.1-0.1,0.2-0.2,0.3-0.3c0.1-0.1,0.3-0.2,0.4-0.2c0.2,0,0.4-0.1,0.5-0.1
			c0.4,0,0.8,0.1,1.2,0.3v1h-0.4l-0.2-0.8c-0.2-0.1-0.5-0.2-0.7-0.2c-0.4,0-0.6,0.2-0.6,0.5c0,0.2,0.1,0.4,0.2,0.5
			c0.2,0.2,0.4,0.4,0.7,0.5c0.2,0.1,0.4,0.2,0.6,0.3c0.1,0.1,0.3,0.2,0.4,0.3c0.1,0.1,0.2,0.2,0.2,0.4C80,26.7,80,26.9,80,27
			c0,0.2,0,0.3-0.1,0.5c-0.1,0.2-0.2,0.3-0.3,0.4c-0.1,0.1-0.3,0.2-0.5,0.3c-0.2,0.1-0.4,0.1-0.6,0.1c-0.4,0-0.9-0.1-1.3-0.3v-1h0.4
			l0.2,0.8C77.9,27.9,78.2,28,78.5,28z"/>
		<path class="st4" d="M81.1,23.1c0-0.3,0-0.6,0-0.8l-0.6-0.1c0-0.1,0-0.2,0-0.3c0.3,0,0.8-0.1,1.3-0.2c0,0,0.1,0.1,0.1,0.2
			c0,0.4-0.1,0.8,0,1.2v1.5c0.4-0.5,0.8-0.8,1.4-0.8c0.3,0,0.6,0.1,0.8,0.2c0.2,0.2,0.4,0.5,0.3,0.8v2.8l0.6,0.1c0,0.1,0,0.2,0,0.3
			c-0.3,0-0.7,0-1,0c-0.2,0-0.6,0-1,0c0-0.1,0-0.2,0-0.3l0.6-0.1c0-0.3,0-0.6,0-1v-1.4c0-0.3,0-0.5-0.1-0.8
			c-0.1-0.2-0.3-0.3-0.5-0.2c-0.2,0-0.4,0.1-0.6,0.2c-0.2,0.2-0.4,0.4-0.6,0.6v2.6l0.6,0.1c0,0.1,0,0.2,0,0.3c-0.3,0-0.7,0-1,0
			c-0.2,0-0.6,0-1,0c0-0.1,0-0.2,0-0.3l0.6-0.1c0-0.3,0-0.6,0-1L81.1,23.1z"/>
		<path class="st3" d="M34,19.6v-2.4c0-0.1,0-0.3-0.2-0.4h0.7c-0.1,0.1-0.2,0.2-0.2,0.4v2.5h1c0.4,0,0.5,0,0.7-0.2l0,0L35.9,20h-2.1
			C34,19.9,34,19.8,34,19.6z"/>
		<path class="st3" d="M37.9,19.6c-0.2,0.3-0.5,0.5-0.8,0.5c-0.5,0-0.8-0.3-0.8-0.7c0-0.5,0.4-0.8,1.2-0.8c0.1,0,0.2,0,0.4,0v-0.1
			c0-0.2,0-0.2,0-0.3c-0.1-0.2-0.3-0.2-0.6-0.2c-0.3,0-0.5,0-0.7,0.2l0.1-0.4c0.2,0,0.4-0.1,0.6-0.1c0.2,0,0.5,0,0.7,0.1
			c0.1,0,0.1,0.1,0.2,0.2c0.1,0.1,0.1,0.2,0.1,0.6v0.8c0,0.1,0,0.3,0,0.4c0,0.1,0,0.2,0.1,0.2h-0.4C37.9,19.8,37.9,19.7,37.9,19.6z
			 M37.4,18.7c-0.5,0-0.8,0.2-0.8,0.6c0,0.3,0.2,0.5,0.5,0.5c0,0,0,0,0,0c0.2,0,0.4-0.1,0.5-0.2c0.1-0.1,0.1-0.2,0.2-0.3
			c0.1-0.2,0.1-0.4,0.1-0.6C37.7,18.7,37.6,18.7,37.4,18.7L37.4,18.7z"/>
		<path class="st3" d="M38.6,18.1c0-0.1-0.1-0.3-0.3-0.4h0.5l0.6,1.5l0.4-1.2c-0.1-0.1-0.1-0.3-0.3-0.4h0.6c0,0-0.1,0.1-0.1,0.1
			c0,0.1,0,0.1,0,0.2l0.4,1.2l0.4-1.2c0-0.1,0-0.1,0-0.2c0-0.1,0-0.1-0.1-0.2h0.6c0,0.1-0.1,0.1-0.1,0.1c-0.1,0.1-0.1,0.2-0.2,0.3
			L40.6,20L40,18.5L39.4,20L38.6,18.1z"/>
		<path class="st3" d="M42.7,18.4c-0.1-0.9,0.5-1.7,1.4-1.8c0.9-0.1,1.7,0.5,1.8,1.4c0,0.1,0,0.3,0,0.4c0,0.9-0.7,1.6-1.6,1.6
			c0,0,0,0-0.1,0C43.5,20.1,42.8,19.4,42.7,18.4C42.7,18.5,42.7,18.5,42.7,18.4L42.7,18.4z M44.4,19.8c0.7,0,1.2-0.6,1.2-1.4
			S45.1,17,44.3,17s-1.2,0.6-1.2,1.4C43.1,19.2,43.6,19.8,44.4,19.8L44.4,19.8z"/>
		<path class="st3" d="M46.4,20c0.1-0.1,0.2-0.2,0.2-0.4V18h-0.1c-0.1,0-0.2,0-0.2,0l0.1-0.3h0.2v-0.4c0-0.6,0.3-0.8,0.9-0.8
			c0.1,0,0.1,0,0.2,0l0.1,0.3c-0.1,0-0.2,0-0.3,0c-0.1,0-0.3,0-0.4,0.1c-0.1,0.1-0.2,0.2-0.2,0.6v0.3h0.4c0.1,0,0.2,0,0.2,0L47.4,18
			h-0.5v1.6c0,0.2,0,0.3,0.2,0.4L46.4,20z"/>
		<path class="st3" d="M47.7,20c0.1-0.1,0.2-0.2,0.2-0.4V18h-0.1c-0.1,0-0.1,0-0.2,0l0.1-0.3h0.2v-0.4c0-0.6,0.3-0.8,0.9-0.8
			c0.1,0,0.1,0,0.2,0l0.1,0.3c-0.1,0-0.2,0-0.3,0c-0.1,0-0.3,0-0.4,0.1c-0.1,0.1-0.2,0.2-0.2,0.6v0.3h0.4c0.1,0,0.2,0,0.2,0L48.7,18
			h-0.5v1.6c0,0.2,0,0.3,0.2,0.4L47.7,20z"/>
		<path class="st3" d="M49.1,19.6v-1.4v-0.1c0-0.2,0-0.2-0.1-0.3l0.5-0.1v2c0,0.1,0,0.3,0.2,0.4H49C49.1,19.9,49.1,19.8,49.1,19.6z
			 M49.1,16.9h0.4v0.4h-0.4V16.9z"/>
		<path class="st3" d="M51.7,18.1c-0.2-0.1-0.4-0.2-0.6-0.2c-0.5,0-0.9,0.4-0.9,0.9c-0.1,0.5,0.3,0.9,0.7,0.9c0,0,0.1,0,0.1,0
			c0.3,0,0.5-0.1,0.7-0.2L51.8,20C51.6,20,51.4,20,51.2,20c-0.2,0-0.3,0-0.5-0.1c-0.5-0.1-0.8-0.6-0.8-1.1c0-0.3,0.1-0.6,0.3-0.9
			c0.3-0.2,0.6-0.4,1-0.3c0.2,0,0.4,0,0.5,0L51.7,18.1z"/>
		<path class="st3" d="M53.3,20c-0.8,0-1.3-0.5-1.3-1.2c0-0.6,0.4-1.2,1.1-1.2c0,0,0,0,0,0c0.4,0,0.7,0.2,0.9,0.5
			c0.1,0.2,0.1,0.4,0.1,0.6h-1.8v0.1c0,0.5,0.3,0.9,0.8,0.9c0,0,0.1,0,0.1,0c0.3,0,0.5-0.1,0.8-0.3L54,19.9C53.7,20,53.5,20,53.3,20
			z M53.8,18.6c0-0.4-0.3-0.6-0.7-0.6c-0.4,0-0.7,0.3-0.7,0.6L53.8,18.6z"/>
		<path class="st3" d="M55.4,18.9c0-0.6,0.5-1.2,1.1-1.2c0,0,0,0,0.1,0c0.6,0,1.1,0.5,1.2,1.1c0,0,0,0.1,0,0.1
			c0,0.6-0.5,1.2-1.1,1.2c0,0-0.1,0-0.1,0c-0.6,0-1.1-0.4-1.2-1.1C55.4,18.9,55.4,18.9,55.4,18.9z M56.6,19.8c0.5,0,0.8-0.4,0.8-1
			c0-0.6-0.3-0.9-0.8-0.9c-0.5,0-0.8,0.4-0.8,1C55.8,19.4,56.1,19.8,56.6,19.8L56.6,19.8z"/>
		<path class="st3" d="M58.1,20c0.1-0.1,0.2-0.2,0.2-0.4V18h-0.1c-0.1,0-0.2,0-0.2,0l0.1-0.3h0.2v-0.4c0-0.6,0.3-0.8,0.9-0.8
			c0.1,0,0.1,0,0.2,0l0.1,0.3c-0.1,0-0.2,0-0.3,0c-0.1,0-0.3,0-0.4,0.1c-0.1,0.1-0.1,0.2-0.1,0.6v0.3h0.4c0.1,0,0.2,0,0.2,0L59,18
			h-0.5v1.6c0,0.2,0,0.3,0.2,0.4L58.1,20z"/>
	</g>
</g>
</svg>
