<?xml version="1.0" encoding="UTF-8" standalone="no"?>
<svg
   xmlns:dc="http://purl.org/dc/elements/1.1/"
   xmlns:cc="http://creativecommons.org/ns#"
   xmlns:rdf="http://www.w3.org/1999/02/22-rdf-syntax-ns#"
   xmlns:svg="http://www.w3.org/2000/svg"
   xmlns="http://www.w3.org/2000/svg"
   xmlns:sodipodi="http://sodipodi.sourceforge.net/DTD/sodipodi-0.dtd"
   xmlns:inkscape="http://www.inkscape.org/namespaces/inkscape"
   aria-hidden="true"
   focusable="false"
   data-prefix="fal"
   data-icon="tint-slash"
   class="svg-inline--fa fa-tint-slash fa-w-20"
   role="img"
   viewBox="0 0 36 28.799767"
   version="1.1"
   id="svg4"
   sodipodi:docname="tint-slash-light.svg"
   width="36"
   height="28.799767"
   inkscape:version="1.0.2 (e86c870879, 2021-01-15)">
  <metadata
     id="metadata10">
    <rdf:RDF>
      <cc:Work
         rdf:about="">
        <dc:format>image/svg+xml</dc:format>
        <dc:type
           rdf:resource="http://purl.org/dc/dcmitype/StillImage" />
        <dc:title></dc:title>
      </cc:Work>
    </rdf:RDF>
  </metadata>
  <defs
     id="defs8" />
  <sodipodi:namedview
     pagecolor="#ffffff"
     bordercolor="#666666"
     borderopacity="1"
     objecttolerance="10"
     gridtolerance="10"
     guidetolerance="10"
     inkscape:pageopacity="0"
     inkscape:pageshadow="2"
     inkscape:window-width="1708"
     inkscape:window-height="1360"
     id="namedview6"
     showgrid="false"
     fit-margin-top="0"
     fit-margin-left="0"
     fit-margin-right="0"
     fit-margin-bottom="0"
     inkscape:zoom="7.86875"
     inkscape:cx="29.027697"
     inkscape:cy="29.374251"
     inkscape:window-x="1724"
     inkscape:window-y="35"
     inkscape:window-maximized="0"
     inkscape:current-layer="svg4" />
  <path
     fill="currentColor"
     d="m 17.99911,27.001183 c -4.466395,0 -8.1002637,-3.684495 -8.1002637,-8.218393 0,-1.878811 0.6243957,-3.346984 1.5975517,-4.922035 l -1.423171,-1.125036 c -1.1531625,1.839434 -1.9744393,3.661994 -1.9744393,6.041446 0,5.53518 4.4270193,10.018451 9.9003223,10.018451 3.121976,0 5.900817,-1.462548 7.712126,-3.740747 l -1.445672,-1.136287 c -1.485049,1.867561 -3.723871,3.082601 -6.266454,3.082601 z m 0,-24.9701874 c 1.338793,4.3595169 3.380735,7.2733617 5.023288,9.6246874 1.035034,1.485049 1.895687,2.728214 2.446955,4.044507 l 2.351326,1.850685 C 27.145657,12.1507 22.105494,9.5518653 19.647289,1.24347 19.416656,0.42219329 18.707883,3.0456114e-4 17.99911,3.0456114e-4 c -0.697523,0 -1.38942,0.40501317886 -1.642554,1.24316543886 -0.635645,2.1488199 -1.451297,3.9151274 -2.317575,5.4564275 l 1.428797,1.1250366 C 16.395933,6.1992562 17.295962,4.3148199 17.99911,2.0309956 Z M 35.83094,27.293692 1.2923163,0.10155786 C 1.1010601,-0.05594727 0.81417576,-0.02782135 0.66229582,0.16906005 L 0.09977752,0.87220793 C -0.0577276,1.0690893 -0.0239765,1.3503485 0.16727972,1.5022284 L 34.705903,28.699988 c 0.191257,0.157505 0.478141,0.123754 0.630021,-0.0675 l 0.562518,-0.703148 c 0.157505,-0.196882 0.129379,-0.478141 -0.0675,-0.635646 z"
     id="path2"
     style="fill:#ffffff;stroke-width:0.0562518" />
</svg>
