<svg xmlns="http://www.w3.org/2000/svg" width="38.983" height="29.238" viewBox="0 0 38.983 29.238">
  <path id="truck-light" d="M38.5,53.441H37.034V46.856A3.9,3.9,0,0,0,35.889,44.1l-5.11-5.11a3.881,3.881,0,0,0-2.753-1.145H25.339V34.838A2.932,2.932,0,0,0,22.33,32H3.009A2.932,2.932,0,0,0,0,34.838V52.552A2.932,2.932,0,0,0,3.009,55.39H4a4.681,4.681,0,0,0-.1.975,4.873,4.873,0,0,0,9.746,0,5.133,5.133,0,0,0-.1-.975h11.89a4.681,4.681,0,0,0-.1.975,4.873,4.873,0,0,0,9.746,0,5.133,5.133,0,0,0-.1-.975H38.5a.489.489,0,0,0,.487-.487v-.975A.489.489,0,0,0,38.5,53.441ZM28.025,39.8a1.946,1.946,0,0,1,1.377.573l5.11,5.11a1.63,1.63,0,0,1,.11.171H25.339V39.8h2.686ZM8.771,59.288A2.924,2.924,0,1,1,11.7,56.365,2.925,2.925,0,0,1,8.771,59.288Zm3.874-5.848a4.824,4.824,0,0,0-7.748,0H3.009a.985.985,0,0,1-1.06-.889V34.838a.985.985,0,0,1,1.06-.889H22.33a.985.985,0,0,1,1.06.889v18.6Zm17.567,5.848a2.924,2.924,0,1,1,2.924-2.924A2.925,2.925,0,0,1,30.212,59.288Zm0-7.8a4.847,4.847,0,0,0-3.874,1.949h-1V47.593h9.746v5.848h-1A4.847,4.847,0,0,0,30.212,51.492Z" transform="translate(0 -32)" fill="#006c9f"/>
</svg>
