<svg xmlns="http://www.w3.org/2000/svg" width="31.518" height="36.02" viewBox="0 0 31.518 36.02">
  <path id="user-hard-hat-light" d="M22.062,24.764c-2.021,0-2.986,1.126-6.3,1.126s-4.283-1.126-6.3-1.126A9.455,9.455,0,0,0,0,34.219a1.8,1.8,0,0,0,1.8,1.8H29.717a1.8,1.8,0,0,0,1.8-1.8,9.455,9.455,0,0,0-9.455-9.455Zm-19.8,9.005a7.214,7.214,0,0,1,7.193-6.754c1.394,0,2.738,1.126,6.3,1.126,3.588,0,4.9-1.126,6.3-1.126a7.213,7.213,0,0,1,7.19,6.754ZM6.191,11.256h.891a8.746,8.746,0,0,0-.328,2.251,9.005,9.005,0,0,0,18.01,0,8.746,8.746,0,0,0-.328-2.251h.891a.563.563,0,0,0,.563-.563V9.568a.563.563,0,0,0-.563-.563h-.563a7.858,7.858,0,0,0-5.792-7.564A2.244,2.244,0,0,0,16.884,0H14.633a2.244,2.244,0,0,0-2.087,1.441A7.858,7.858,0,0,0,6.754,9.005H6.191a.563.563,0,0,0-.563.563v1.126A.563.563,0,0,0,6.191,11.256ZM19.136,3.863a5.624,5.624,0,0,1,3.377,5.142H19.136Zm-4.5-1.612h2.251V9.005H14.633ZM9.005,9.005a5.624,5.624,0,0,1,3.377-5.142V9.005Zm.422,2.251H22.091a6.472,6.472,0,0,1,.422,2.251,6.754,6.754,0,1,1-13.508,0A6.472,6.472,0,0,1,9.427,11.256Z" fill="#006c9f"/>
</svg>
