<svg xmlns="http://www.w3.org/2000/svg" width="20" height="26.841" viewBox="0 0 20 26.841">
  <path id="yelp-brands" d="M3.2,12.6l5.223,2.548a1.2,1.2,0,0,1-.236,2.239L2.551,18.8A1.195,1.195,0,0,1,1.072,17.77,10.336,10.336,0,0,1,1.544,13.3,1.2,1.2,0,0,1,3.2,12.6ZM5.508,25.147A10.456,10.456,0,0,0,9.672,26.83a1.194,1.194,0,0,0,1.4-1.137l.2-5.81a1.2,1.2,0,0,0-2.087-.844l-3.89,4.32a1.2,1.2,0,0,0,.214,1.787Zm7.619-5.762,3.083,4.928a1.2,1.2,0,0,0,1.782.288,10.4,10.4,0,0,0,2.763-3.544,1.206,1.206,0,0,0-.712-1.653l-5.527-1.8a1.2,1.2,0,0,0-1.39,1.778ZM20.9,12.452a10.351,10.351,0,0,0-2.643-3.634,1.2,1.2,0,0,0-1.782.231l-3.25,4.819a1.2,1.2,0,0,0,1.321,1.82l5.591-1.6a1.206,1.206,0,0,0,.766-1.636ZM4.208,1.588a1.2,1.2,0,0,0-.519,1.678l5.458,9.459a1.2,1.2,0,0,0,2.234-.6V1.205A1.188,1.188,0,0,0,10.1.01,16.8,16.8,0,0,0,4.208,1.588Z" transform="translate(-1.005 -0.006)" fill="#fff"/>
</svg>
