<svg xmlns="http://www.w3.org/2000/svg" width="20" height="14.063" viewBox="0 0 20 14.063">
  <path id="youtube-brands" d="M34.515,66.2a2.513,2.513,0,0,0-1.768-1.78C31.187,64,24.933,64,24.933,64s-6.254,0-7.814.421a2.513,2.513,0,0,0-1.768,1.78,28.295,28.295,0,0,0,0,9.69,2.476,2.476,0,0,0,1.768,1.751c1.56.421,7.814.421,7.814.421s6.254,0,7.814-.421a2.476,2.476,0,0,0,1.768-1.751,28.3,28.3,0,0,0,0-9.69ZM22.888,74.019V68.072l5.227,2.974-5.227,2.974Z" transform="translate(-14.933 -64)" fill="#fff"/>
</svg>
